<?xml version="1.0" encoding="UTF-8"?>
<svg xmlns="http://www.w3.org/2000/svg" viewBox="0 0 800 600" role="img" aria-labelledby="heroTitle heroDesc">
  <title id="heroTitle">Illustration CaraTemple</title>
  <desc id="heroDesc">Paysage aquatique pastel inspiré de Carapuce.</desc>
  <defs>
    <linearGradient id="sky" x1="0" y1="0" x2="0" y2="1">
      <stop offset="0%" stop-color="#c9f1ff"/>
      <stop offset="100%" stop-color="#7bd0ff"/>
    </linearGradient>
    <linearGradient id="water" x1="0" y1="0" x2="1" y2="1">
      <stop offset="0%" stop-color="#87e0ff"/>
      <stop offset="100%" stop-color="#3aa9f2"/>
    </linearGradient>
  </defs>
  <rect width="800" height="600" fill="url(#sky)"/>
  <ellipse cx="400" cy="440" rx="360" ry="140" fill="url(#water)" opacity="0.9"/>
  <g opacity="0.5">
    <circle cx="120" cy="200" r="60" fill="#ffffff"/>
    <circle cx="200" cy="220" r="80" fill="#ffffff"/>
    <circle cx="680" cy="210" r="70" fill="#ffffff"/>
  </g>
  <g>
    <path d="M360 340c0-44 36-80 80-80s80 36 80 80-36 80-80 80" fill="#ffe6c7" stroke="#0d4a73" stroke-width="8" stroke-linecap="round"/>
    <circle cx="400" cy="320" r="16" fill="#0d4a73"/>
    <circle cx="440" cy="320" r="16" fill="#0d4a73"/>
    <path d="M396 360c16 16 48 16 64 0" stroke="#0d4a73" stroke-width="8" stroke-linecap="round" fill="none"/>
    <path d="M320 360c-24-36 4-92 60-112" stroke="#0d4a73" stroke-width="8" stroke-linecap="round" fill="none" opacity="0.6"/>
  </g>
  <g opacity="0.2">
    <circle cx="120" cy="480" r="60" fill="#ffffff"/>
    <circle cx="680" cy="480" r="50" fill="#ffffff"/>
  </g>
</svg>
