<svg xmlns="http://www.w3.org/2000/svg" aria-labelledby="heroTitle heroDesc" viewBox="0 0 800 600"><title>Illustration CaraTemple</title><desc>Paysage aquatique pastel inspiré de Carapuce.</desc><defs><linearGradient id="a" x1="0" x2="0" y1="0" y2="1"><stop offset="0%" stop-color="#c9f1ff"/><stop offset="100%" stop-color="#7bd0ff"/></linearGradient><linearGradient id="b" x1="0" x2="1" y1="0" y2="1"><stop offset="0%" stop-color="#87e0ff"/><stop offset="100%" stop-color="#3aa9f2"/></linearGradient></defs><path fill="url(#a)" d="M0 0h800v600H0z"/><ellipse cx="400" cy="440" fill="url(#b)" opacity=".9" rx="360" ry="140"/><g fill="#fff" opacity=".5"><circle cx="120" cy="200" r="60"/><circle cx="200" cy="220" r="80"/><circle cx="680" cy="210" r="70"/></g><path fill="#ffe6c7" stroke="#0d4a73" stroke-linecap="round" stroke-width="8" d="M360 340c0-44 36-80 80-80s80 36 80 80-36 80-80 80"/><circle cx="400" cy="320" r="16" fill="#0d4a73"/><circle cx="440" cy="320" r="16" fill="#0d4a73"/><path fill="none" stroke="#0d4a73" stroke-linecap="round" stroke-width="8" d="M396 360c16 16 48 16 64 0"/><path fill="none" stroke="#0d4a73" stroke-linecap="round" stroke-width="8" d="M320 360c-24-36 4-92 60-112" opacity=".6"/><g fill="#fff" opacity=".2"><circle cx="120" cy="480" r="60"/><circle cx="680" cy="480" r="50"/></g></svg>