<svg aria-labelledby="loginTitle loginDesc" viewBox="0 0 720 600"><title>Illustration connexion CaraTemple</title><desc>Carapuce naviguant dans un décor lumineux pour inviter à la connexion.</desc><defs><linearGradient id="a" x1="0" x2="0" y1="0" y2="1"><stop offset="0%" stop-color="#dff5ff"/><stop offset="100%" stop-color="#7bd0ff"/></linearGradient><linearGradient id="b" x1="0" x2="1" y1="0" y2="1"><stop offset="0%" stop-color="#80dfff"/><stop offset="100%" stop-color="#2f8fe6"/></linearGradient><linearGradient id="c" x1="0" x2="1" y1="0" y2="1"><stop offset="0%" stop-color="#fdd7ff"/><stop offset="100%" stop-color="#7ebdff"/></linearGradient></defs><path fill="url(#a)" d="M0 0h720v600H0z"/><ellipse cx="360" cy="430" fill="url(#b)" opacity=".85" rx="330" ry="150"/><g fill="#fff" opacity=".5"><circle cx="130" cy="170" r="65"/><circle cx="210" cy="200" r="90"/><circle cx="580" cy="190" r="82"/></g><circle cx="360" cy="310" r="64" fill="url(#c)" stroke="#0d4a73" stroke-width="8"/><path fill="none" stroke="#fff" stroke-linecap="round" stroke-width="6" d="M324 298c18-18 54-18 72 0"/><circle cx="344" cy="330" r="16" fill="#0d4a73"/><circle cx="392" cy="330" r="16" fill="#0d4a73"/><path fill="none" stroke="#0d4a73" stroke-linecap="round" stroke-width="10" d="M338 366c18 16 48 16 66 0"/><path fill="none" stroke="#0d4a73" stroke-linecap="round" stroke-width="9" d="M304 368c-26-42 10-110 74-132m100 132c28-46-6-120-80-140" opacity=".45"/><g fill="#fff" opacity=".18"><circle cx="130" cy="490" r="60"/><circle cx="610" cy="480" r="54"/></g></svg>