<?xml version="1.0" encoding="UTF-8"?>
<svg xmlns="http://www.w3.org/2000/svg" viewBox="0 0 720 600" role="img" aria-labelledby="loginTitle loginDesc">
  <title id="loginTitle">Illustration connexion CaraTemple</title>
  <desc id="loginDesc">Carapuce naviguant dans un décor lumineux pour inviter à la connexion.</desc>
  <defs>
    <linearGradient id="loginSky" x1="0" y1="0" x2="0" y2="1">
      <stop offset="0%" stop-color="#dff5ff" />
      <stop offset="100%" stop-color="#7bd0ff" />
    </linearGradient>
    <linearGradient id="loginWater" x1="0" y1="0" x2="1" y2="1">
      <stop offset="0%" stop-color="#80dfff" />
      <stop offset="100%" stop-color="#2f8fe6" />
    </linearGradient>
    <linearGradient id="loginShell" x1="0" y1="0" x2="1" y2="1">
      <stop offset="0%" stop-color="#fdd7ff" />
      <stop offset="100%" stop-color="#7ebdff" />
    </linearGradient>
  </defs>
  <rect width="720" height="600" fill="url(#loginSky)" />
  <ellipse cx="360" cy="430" rx="330" ry="150" fill="url(#loginWater)" opacity="0.85" />
  <g opacity="0.5" fill="#fff">
    <circle cx="130" cy="170" r="65" />
    <circle cx="210" cy="200" r="90" />
    <circle cx="580" cy="190" r="82" />
  </g>
  <g>
    <circle cx="360" cy="310" r="64" fill="url(#loginShell)" stroke="#0d4a73" stroke-width="8" />
    <path d="M324 298c18-18 54-18 72 0" fill="none" stroke="#ffffff" stroke-width="6" stroke-linecap="round" />
    <circle cx="344" cy="330" r="16" fill="#0d4a73" />
    <circle cx="392" cy="330" r="16" fill="#0d4a73" />
    <path d="M338 366c18 16 48 16 66 0" fill="none" stroke="#0d4a73" stroke-width="10" stroke-linecap="round" />
    <path d="M304 368c-26-42 10-110 74-132" fill="none" stroke="#0d4a73" stroke-width="9" stroke-linecap="round" opacity="0.45" />
    <path d="M478 368c28-46-6-120-80-140" fill="none" stroke="#0d4a73" stroke-width="9" stroke-linecap="round" opacity="0.45" />
  </g>
  <g opacity="0.18" fill="#fff">
    <circle cx="130" cy="490" r="60" />
    <circle cx="610" cy="480" r="54" />
  </g>
</svg>
