<?xml version="1.0" encoding="UTF-8"?>
<svg xmlns="http://www.w3.org/2000/svg" viewBox="0 0 720 600" role="img" aria-labelledby="registerTitle registerDesc">
  <title id="registerTitle">Illustration inscription CaraTemple</title>
  <desc id="registerDesc">Paysage pastel avec un Carapuce stylisé invitant à rejoindre le Temple.</desc>
  <defs>
    <linearGradient id="regSky" x1="0" y1="0" x2="0" y2="1">
      <stop offset="0%" stop-color="#c9f1ff" />
      <stop offset="100%" stop-color="#7bd0ff" />
    </linearGradient>
    <linearGradient id="regWater" x1="0" y1="0" x2="1" y2="1">
      <stop offset="0%" stop-color="#89e0ff" />
      <stop offset="100%" stop-color="#3aa9f2" />
    </linearGradient>
    <linearGradient id="regShell" x1="0" y1="0" x2="1" y2="1">
      <stop offset="0%" stop-color="#ffe1a8" />
      <stop offset="100%" stop-color="#f6a04d" />
    </linearGradient>
  </defs>
  <rect width="720" height="600" fill="url(#regSky)" />
  <ellipse cx="360" cy="440" rx="340" ry="140" fill="url(#regWater)" opacity="0.9" />
  <g opacity="0.55" fill="#fff">
    <circle cx="140" cy="180" r="70" />
    <circle cx="220" cy="210" r="90" />
    <circle cx="600" cy="170" r="80" />
  </g>
  <g>
    <path d="M320 380c0-60 46-108 104-108s104 48 104 108-46 108-104 108" fill="#ffe6c7" stroke="#0d4a73" stroke-width="10" stroke-linecap="round" />
    <circle cx="370" cy="340" r="18" fill="#0d4a73" />
    <circle cx="430" cy="340" r="18" fill="#0d4a73" />
    <path d="M364 396c20 18 56 18 76 0" stroke="#0d4a73" stroke-width="10" stroke-linecap="round" fill="none" />
    <path d="M300 392c-28-44 8-110 76-134" stroke="#0d4a73" stroke-width="10" stroke-linecap="round" fill="none" opacity="0.45" />
    <path d="M492 392c32-48-10-126-86-146" stroke="#0d4a73" stroke-width="10" stroke-linecap="round" fill="none" opacity="0.45" />
    <circle cx="360" cy="310" r="58" fill="url(#regShell)" stroke="#0d4a73" stroke-width="8" />
    <path d="M330 298c18-16 44-16 62 0" fill="none" stroke="#fff" stroke-width="6" stroke-linecap="round" />
  </g>
  <g opacity="0.2" fill="#fff">
    <circle cx="120" cy="480" r="60" />
    <circle cx="620" cy="480" r="50" />
  </g>
</svg>
