<svg aria-labelledby="registerTitle registerDesc" viewBox="0 0 720 600"><title>Illustration inscription CaraTemple</title><desc>Paysage pastel avec un Carapuce stylisé invitant à rejoindre le Temple.</desc><defs><linearGradient id="a" x1="0" x2="0" y1="0" y2="1"><stop offset="0%" stop-color="#c9f1ff"/><stop offset="100%" stop-color="#7bd0ff"/></linearGradient><linearGradient id="b" x1="0" x2="1" y1="0" y2="1"><stop offset="0%" stop-color="#89e0ff"/><stop offset="100%" stop-color="#3aa9f2"/></linearGradient><linearGradient id="c" x1="0" x2="1" y1="0" y2="1"><stop offset="0%" stop-color="#ffe1a8"/><stop offset="100%" stop-color="#f6a04d"/></linearGradient></defs><path fill="url(#a)" d="M0 0h720v600H0z"/><ellipse cx="360" cy="440" fill="url(#b)" opacity=".9" rx="340" ry="140"/><g fill="#fff" opacity=".55"><circle cx="140" cy="180" r="70"/><circle cx="220" cy="210" r="90"/><circle cx="600" cy="170" r="80"/></g><path fill="#ffe6c7" stroke="#0d4a73" stroke-linecap="round" stroke-width="10" d="M320 380c0-60 46-108 104-108s104 48 104 108-46 108-104 108"/><circle cx="370" cy="340" r="18" fill="#0d4a73"/><circle cx="430" cy="340" r="18" fill="#0d4a73"/><path fill="none" stroke="#0d4a73" stroke-linecap="round" stroke-width="10" d="M364 396c20 18 56 18 76 0"/><path fill="none" stroke="#0d4a73" stroke-linecap="round" stroke-width="10" d="M300 392c-28-44 8-110 76-134m116 134c32-48-10-126-86-146" opacity=".45"/><circle cx="360" cy="310" r="58" fill="url(#c)" stroke="#0d4a73" stroke-width="8"/><path fill="none" stroke="#fff" stroke-linecap="round" stroke-width="6" d="M330 298c18-16 44-16 62 0"/><g fill="#fff" opacity=".2"><circle cx="120" cy="480" r="60"/><circle cx="620" cy="480" r="50"/></g></svg>